<?xml version="1.0" standalone="no"?>
<!DOCTYPE svg PUBLIC "-//W3C//DTD SVG 20010904//EN"
 "http://www.w3.org/TR/2001/REC-SVG-20010904/DTD/svg10.dtd">
<svg version="1.0" xmlns="http://www.w3.org/2000/svg"
 width="722.000000pt" height="711.000000pt" viewBox="0 0 722.000000 711.000000"
 preserveAspectRatio="xMidYMid meet">
<metadata>
Created by potrace 1.16, written by Peter Selinger 2001-2019
</metadata>
<g transform="translate(0.000000,711.000000) scale(0.100000,-0.100000)"
fill="#000000" stroke="none">
<path d="M221 6896 c-8 -10 -10 -183 -9 -637 l3 -624 635 0 635 0 0 635 0 635
-626 3 c-520 2 -628 0 -638 -12z m1074 -611 l0 -460 -460 0 -460 0 -3 450 c-1
248 0 456 3 463 3 10 101 12 462 10 l458 -3 0 -460z"/>
<path d="M572 6548 c-18 -18 -17 -511 1 -526 14 -12 510 -12 522 -1 8 9 8 515
0 529 -9 15 -507 14 -523 -2z"/>
<path d="M1662 6901 c-9 -5 -12 -28 -10 -77 l3 -69 90 -5 90 -5 5 -90 5 -90
265 -5 265 -5 3 -97 3 -98 -171 0 -170 0 -1 -27 c-1 -16 -1 -48 -1 -73 1 -92
4 -90 -103 -90 l-94 0 -3 93 -3 92 -93 3 -93 3 3 -93 3 -93 93 -3 92 -3 0
-174 0 -174 -92 -3 -93 -3 0 -90 0 -90 93 -3 93 -3 -3 -77 -3 -77 -90 -5 -90
-5 -3 -187 c-2 -140 -6 -188 -15 -189 -6 0 -77 0 -157 1 -80 1 -153 -2 -163
-5 -14 -6 -17 -21 -17 -101 l0 -94 -89 0 c-101 0 -114 -7 -111 -67 4 -87 7
-83 -64 -83 -42 0 -67 -5 -75 -14 -8 -9 -11 -45 -9 -98 l3 -83 64 -3 c35 -2
68 1 74 7 5 5 9 39 8 76 -2 118 -4 115 105 115 l93 0 3 -97 3 -98 93 -3 92 -3
0 -94 0 -94 -92 -3 -93 -3 -3 -77 -3 -78 -88 0 c-60 0 -92 4 -99 13 -6 7 -12
42 -14 77 l-3 65 -165 5 -165 5 0 365 0 365 163 1 c89 0 164 3 167 5 2 3 5 38
6 79 2 116 -10 109 202 112 l182 3 0 90 0 90 -265 0 -265 0 -5 -90 -5 -90 -90
0 -90 0 -5 90 -5 90 -95 0 -95 0 -5 -90 -5 -90 -90 -5 -90 -5 -3 -85 c-2 -47
-7 -89 -12 -94 -5 -5 -36 -10 -69 -12 -33 -1 -65 -5 -71 -9 -15 -9 -13 -160 3
-174 8 -6 76 -12 173 -13 l159 -3 3 -72 3 -73 -164 0 c-113 0 -167 -4 -175
-12 -17 -17 -16 -162 1 -176 7 -6 42 -12 77 -14 l65 -3 0 -90 0 -90 -65 -3
c-35 -2 -70 -8 -77 -14 -17 -14 -17 -122 0 -136 7 -6 42 -12 77 -14 l65 -3 5
-285 5 -285 92 -3 92 -3 3 -72 3 -72 98 -3 97 -3 0 -99 0 -100 -272 -2 -273
-3 -3 -81 c-2 -59 1 -84 11 -92 8 -7 73 -13 173 -14 l159 -3 3 -92 3 -93 -164
0 c-113 0 -167 -4 -175 -12 -16 -16 -16 -120 0 -136 9 -9 84 -12 275 -12 l263
0 0 -95 0 -95 -88 0 c-55 0 -92 -4 -100 -12 -16 -16 -16 -160 0 -176 16 -16
160 -16 176 0 8 8 12 45 12 100 l0 87 93 3 92 3 0 90 0 90 -93 3 -93 3 3 77 3
77 90 5 90 5 3 93 3 92 444 0 444 0 3 -92 3 -93 190 0 190 0 5 90 5 90 173 3
172 2 0 -95 0 -95 95 0 95 0 0 95 0 95 70 0 70 0 -16 38 c-34 81 -55 206 -60
367 -7 182 9 315 51 440 14 42 25 77 25 80 0 2 -30 5 -67 7 l-68 3 -3 354 c-1
246 1 358 9 367 6 8 38 14 77 16 l67 3 5 70 5 70 90 0 90 0 5 -70 5 -70 93 -3
92 -3 0 60 c0 99 -24 91 276 91 l264 0 5 -22 c3 -13 6 -90 8 -173 l2 -150 70
-3 c38 -2 80 0 92 3 l23 5 0 264 0 263 43 6 c23 3 53 4 67 2 14 -2 37 -4 53
-4 l27 -1 0 -84 c0 -102 5 -108 92 -104 l63 3 3 83 c2 53 -1 89 -9 98 -8 10
-31 13 -78 11 l-66 -2 -3 193 -2 193 77 -3 78 -3 5 -90 5 -90 90 0 90 0 3 173
2 172 94 0 c76 0 95 3 100 16 9 23 7 147 -2 162 -6 9 -33 12 -98 10 l-89 -3
-3 -93 -3 -93 -92 3 -92 3 -5 90 -5 90 -75 5 -75 5 -5 95 -5 95 -167 -4 c-91
-1 -176 0 -187 4 -21 6 -21 11 -21 371 l0 365 93 -3 92 -3 5 -90 5 -90 90 -5
90 -5 3 -85 c2 -46 8 -90 13 -97 6 -7 40 -13 77 -15 l67 -3 3 -92 3 -93 -69 0
c-39 0 -73 -5 -80 -12 -7 -7 -12 -39 -12 -74 l0 -63 56 -7 c34 -4 65 -2 80 5
22 10 24 16 24 80 l0 70 93 3 92 3 3 193 2 192 89 0 c60 0 92 -4 99 -13 6 -7
12 -51 14 -97 l3 -85 165 -3 c113 -2 166 -6 171 -14 10 -16 10 -300 1 -315 -8
-12 -163 -25 -180 -14 -6 3 -12 38 -14 76 l-3 70 -70 0 -70 0 -3 -69 c-2 -47
1 -72 9 -77 7 -4 41 -5 76 -3 l63 5 2 -193 3 -193 92 -3 92 -3 7 27 c4 14 4
52 1 84 -8 76 -1 82 105 78 l83 -3 3 -172 2 -173 -95 0 -95 0 2 -192 3 -192
76 0 c118 0 109 -15 109 199 l0 185 95 0 95 0 0 -184 c0 -135 3 -186 13 -193
6 -5 42 -9 79 -8 l68 0 0 -97 0 -97 -77 -3 -78 -3 -3 -72 -3 -73 -94 0 -94 0
-3 73 -3 72 -190 5 -190 5 -3 92 c-3 85 -4 91 -25 95 -18 4 -74 3 -119 -1 -4
-1 -9 -76 -10 -168 l-3 -168 -85 -3 c-46 -2 -90 -8 -97 -13 -8 -7 -13 -43 -15
-97 l-3 -87 -170 -5 -170 -5 -3 -92 -3 -93 -277 0 c-293 0 -302 -1 -302 -46 0
-27 17 -34 81 -34 65 0 182 -25 264 -55 51 -19 85 -25 150 -25 l85 0 0 -82 c0
-65 7 -102 31 -178 17 -52 33 -101 35 -108 3 -9 18 -12 46 -10 l43 3 3 188 2
187 95 0 95 0 0 -79 c0 -114 -2 -111 95 -111 59 0 86 -4 94 -14 8 -9 11 -43 9
-93 l-3 -78 -87 -3 c-54 -2 -90 -7 -97 -15 -5 -7 -11 -51 -13 -97 l-3 -85 -90
-5 -90 -5 0 -70 0 -70 192 -3 192 -2 3 -98 3 -97 70 0 70 0 3 97 3 97 97 3
c96 3 97 3 96 28 -1 14 -2 46 -3 73 l-1 47 -95 0 -95 0 0 88 c0 55 4 92 12
100 7 7 44 12 94 12 96 0 97 1 93 103 -1 35 1 69 5 75 5 8 39 12 97 12 l89 0
0 -270 0 -270 -97 0 -98 0 2 -92 c1 -51 2 -96 2 -100 1 -5 44 -8 96 -8 l94 0
3 -92 3 -93 90 0 90 0 3 93 3 92 -96 0 -95 0 0 100 0 99 93 3 92 3 5 70 5 70
75 0 75 0 5 -70 5 -70 90 -5 90 -5 3 -89 c2 -65 -1 -92 -10 -98 -7 -4 -50 -8
-96 -8 l-83 0 3 -92 3 -93 185 0 185 0 3 70 c4 117 3 115 75 115 36 0 68 5 75
12 8 8 12 45 12 100 l0 88 95 0 95 0 0 63 c0 34 4 68 8 75 6 9 33 12 98 10
l89 -3 3 -165 c2 -116 6 -166 15 -172 14 -9 138 -11 161 -2 13 5 16 23 16 95
0 101 -4 96 100 101 l55 3 3 159 c2 105 -1 163 -9 172 -6 8 -37 14 -77 16
l-67 3 0 90 0 90 65 3 c35 2 70 8 77 14 10 8 13 67 13 253 0 134 -3 250 -6
259 -5 12 -21 16 -68 16 -35 0 -67 5 -74 12 -8 8 -12 45 -12 100 l0 87 78 3
77 3 0 360 0 360 -75 0 -75 0 -5 -90 -5 -90 -90 -5 -90 -5 -3 -85 c-2 -47 -7
-89 -12 -94 -5 -5 -38 -8 -73 -7 -36 1 -76 -1 -91 -5 -26 -6 -26 -7 -26 -100
l0 -94 -169 0 c-126 0 -170 -3 -174 -12 -3 -11 -3 -107 2 -130 0 -5 29 -8 64
-8 36 0 68 -5 75 -12 8 -8 12 -66 12 -195 l0 -183 -69 0 c-87 0 -95 -8 -89
-95 l5 -65 -99 0 -98 0 0 269 c0 236 -2 270 -16 275 -9 3 -51 6 -95 6 l-79 0
0 75 0 74 93 3 92 3 3 92 c3 108 4 107 -111 101 l-72 -3 -5 190 -5 190 -77 3
-78 3 -2 347 -3 347 -90 5 -90 5 -3 93 -3 92 83 0 c46 0 89 4 96 8 9 7 12 52
10 193 l-3 184 -90 5 -90 5 -3 65 c-2 35 -8 70 -14 77 -12 14 -163 19 -172 5
-2 -4 -6 -83 -7 -175 l-3 -168 -96 3 -95 3 -5 90 -5 90 -170 0 -170 0 -3 -93
-3 -93 -92 3 -92 3 -5 90 -5 90 -65 3 c-35 2 -70 8 -77 13 -7 6 -13 40 -15 77
l-3 67 -185 0 -185 0 -3 -78 -3 -77 -172 2 -172 3 -3 65 c-2 35 -8 70 -14 77
-14 17 -159 18 -176 1 -17 -17 -17 -509 0 -526 8 -8 62 -12 175 -12 l163 0 0
-169 0 -169 -27 -7 c-34 -8 -270 -4 -298 5 -17 6 -21 19 -25 76 l-5 69 -90 0
-90 0 -3 -65 c-2 -35 -8 -70 -13 -76 -8 -10 -77 -12 -171 -5 -5 1 -8 30 -8 65
0 40 -5 68 -13 74 -7 6 -42 12 -77 14 l-65 3 -5 190 -5 190 -90 5 -90 5 -3
159 c-1 97 -7 165 -13 173 -15 18 -162 18 -177 0 -6 -7 -12 -42 -14 -77 l-3
-65 -165 0 -165 0 -3 65 c-2 35 -8 70 -14 77 -12 15 -343 19 -366 4z m3657
-355 c8 -9 11 -45 9 -98 l-3 -83 -94 0 -93 0 -2 93 c-1 51 1 95 3 98 2 2 41 4
86 4 59 0 86 -4 94 -14z m-2744 -281 l0 -90 -98 -3 -98 -3 3 -77 3 -77 85 0
c47 0 91 -4 98 -8 8 -6 12 -37 12 -97 l0 -89 93 -3 92 -3 0 -90 0 -90 -93 -3
-93 -3 3 -77 3 -77 172 -3 173 -2 2 172 3 173 90 0 90 0 5 -90 5 -90 93 -3 92
-3 0 83 c0 46 4 89 8 96 6 9 33 12 98 10 l89 -3 3 -92 3 -93 74 0 74 0 3 93 3
92 92 3 c108 3 106 5 101 -113 l-3 -70 -97 -3 -98 -3 0 -79 0 -80 195 0 195 0
2 173 3 172 93 3 92 3 0 -176 0 -175 -95 0 -95 0 0 -189 c0 -117 -4 -191 -10
-193 -5 -1 -214 -1 -462 2 l-453 5 -5 185 -5 185 -92 3 -93 3 0 -80 c0 -44 -3
-86 -6 -95 -5 -14 -39 -16 -275 -16 l-269 0 0 -98 0 -99 -67 2 c-38 2 -72 3
-76 4 -4 0 -6 43 -5 94 l3 92 73 3 72 3 0 94 0 94 -72 3 -73 3 -3 173 -2 172
-95 0 c-83 0 -95 -2 -96 -17 -1 -10 -3 -47 -4 -83 -1 -36 -3 -71 -3 -77 -2
-10 -28 -13 -97 -13 l-95 0 0 95 0 95 99 0 100 0 -2 38 c-1 20 0 99 1 175 l2
137 170 0 170 0 0 95 0 96 98 -3 97 -3 0 -90z m-548 -997 c14 -18 17 -164 3
-173 -6 -4 -50 -7 -98 -8 l-87 -2 -3 75 c-5 122 -6 120 92 120 55 0 87 -4 93
-12z m-194 -187 c4 -1 7 -77 7 -171 l0 -170 94 0 94 0 6 31 c3 17 6 51 6 75
l0 44 170 0 169 0 3 97 3 97 175 2 c98 2 182 -2 193 -7 15 -9 17 -21 15 -97
l-3 -87 -192 -3 -193 -2 0 -75 0 -75 -62 0 c-35 0 -69 -4 -76 -8 -9 -6 -12
-33 -10 -98 l3 -89 73 -3 72 -3 -2 -172 -3 -172 -72 -3 -73 -3 -2 -187 -3
-187 -94 0 -94 0 1 82 c1 57 -3 85 -13 93 -8 6 -46 10 -97 8 l-83 -3 -3 -92
-3 -93 99 0 99 0 -2 -89 c-1 -49 -5 -94 -9 -100 -10 -15 -158 -15 -174 1 -8 8
-12 45 -12 100 l0 88 -95 0 -95 0 0 -88 c0 -55 -4 -92 -12 -100 -8 -8 -62 -12
-175 -12 l-163 0 0 -75 0 -75 359 0 c275 0 361 -3 369 -12 11 -15 10 -348 -2
-366 -5 -8 -40 -12 -96 -12 l-89 0 -3 93 -3 92 -265 5 c-146 3 -266 7 -267 8
-2 1 -3 45 -3 97 l0 95 -94 0 c-107 0 -105 -2 -102 94 l1 56 -77 0 -77 0 -3
-72 -3 -73 -92 -3 -93 -3 0 76 0 75 95 0 95 0 0 100 0 100 -95 0 -94 0 -3 -97
-3 -98 -97 -3 -98 -3 0 89 c0 55 4 92 12 100 8 8 45 12 100 12 l88 0 0 190 0
191 93 -3 92 -3 3 -187 2 -188 71 0 c52 0 71 -4 75 -15 4 -8 7 -52 8 -97 l1
-83 98 -3 97 -3 0 95 c0 76 3 95 16 100 9 3 87 6 175 6 l159 0 0 190 0 189
-77 3 -78 3 -3 78 -3 77 69 0 c39 0 73 -5 80 -12 7 -7 12 -40 12 -80 l0 -68
290 0 291 0 -3 78 -3 77 -92 3 -93 3 -1 69 c-1 39 -3 75 -4 80 -1 6 -3 17 -4
25 -1 12 -17 15 -84 15 -51 0 -88 5 -95 12 -8 8 -12 45 -12 100 l0 88 -95 0
-95 0 0 -88 c0 -55 -4 -92 -12 -100 -7 -7 -40 -12 -80 -12 l-68 0 0 100 0 100
-95 0 -95 0 0 75 0 76 93 -3 92 -3 3 -72 3 -73 79 0 80 0 0 170 0 169 58 3
c48 3 78 3 125 -1z m4965 -268 l3 -73 -80 0 c-114 0 -111 2 -111 -94 0 -50 -5
-87 -12 -94 -7 -7 -42 -12 -88 -12 -46 0 -81 5 -88 12 -8 8 -12 62 -12 175 l0
163 193 -2 192 -3 3 -72z m-1468 -173 l0 -100 173 -2 172 -3 5 -170 5 -170 93
-3 92 -3 0 -94 0 -95 89 0 c61 0 92 4 98 13 4 6 8 48 8 92 l0 80 55 3 c103 4
100 2 100 88 l0 75 93 -3 92 -3 3 -67 c2 -37 8 -71 15 -77 7 -5 51 -11 97 -13
l85 -3 0 -185 0 -185 -95 0 -95 0 -5 90 -5 90 -90 0 -90 0 -3 -267 -2 -268
-75 0 c-53 0 -75 4 -76 13 -1 6 -2 17 -4 22 -1 6 -3 34 -3 63 l-2 52 -83 0
c-51 0 -88 5 -95 12 -8 8 -12 66 -12 195 l0 183 -270 0 -270 0 0 270 0 270
-195 0 -195 0 0 -170 c0 -168 0 -170 -22 -175 -13 -3 -90 -4 -173 -3 l-150 3
-3 63 c-4 87 2 92 104 92 96 0 92 -5 96 115 l3 70 73 3 72 3 0 87 c0 55 4 92
12 100 8 8 66 12 195 12 l183 0 0 -100z m-935 -370 l0 -75 -75 0 -75 0 -3 64
c-4 92 -4 92 80 89 l73 -3 0 -75z m-2907 -172 l-3 -93 -90 0 -90 0 -3 93 -3
92 96 0 96 0 -3 -92z m1090 -100 l2 -188 83 0 c45 0 88 -4 95 -8 9 -6 12 -33
10 -98 l-3 -89 -90 -5 -90 -5 -3 -72 -3 -72 93 -3 93 -3 3 -192 2 -193 -95 0
-95 0 0 195 0 195 -172 2 -173 3 0 70 0 70 70 5 70 5 3 288 2 288 98 -3 97 -3
3 -187z m2362 -463 l0 -75 -75 0 -75 0 0 75 0 75 75 0 75 0 0 -75z m-3992
-373 l3 -93 -93 3 -93 3 -3 93 -3 93 93 -3 93 -3 3 -93z"/>
<path d="M2243 6013 c-9 -3 -13 -32 -13 -99 l0 -94 75 0 74 0 3 -92 3 -93 98
-3 97 -3 0 96 0 95 -100 0 -99 0 -3 98 -3 97 -60 1 c-33 0 -66 -1 -72 -3z"/>
<path d="M3310 5562 c0 -40 5 -73 12 -80 8 -8 45 -12 100 -12 l87 0 3 -92 3
-93 70 0 70 0 3 93 3 92 -76 0 -75 0 0 80 0 80 -100 0 -100 0 0 -68z"/>
<path d="M5685 6898 c-3 -7 -4 -294 -3 -638 l3 -625 629 -3 c497 -2 631 0 638
10 4 7 8 290 8 629 0 465 -3 618 -12 627 -18 18 -1257 17 -1263 0z m1110 -613
l0 -460 -460 0 -460 0 -3 450 c-1 248 0 456 3 463 3 10 101 12 462 10 l458 -3
0 -460z"/>
<path d="M6072 6548 c-16 -16 -17 -490 -1 -519 10 -19 21 -20 262 -19 156 1
257 6 265 12 17 15 18 508 0 526 -9 9 -81 12 -263 12 -182 0 -254 -3 -263 -12z"/>
<path d="M2934 6547 c-3 -8 -4 -52 -2 -98 l3 -84 70 -3 c117 -5 115 -6 115 97
0 104 3 101 -106 101 -53 0 -76 -4 -80 -13z"/>
<path d="M6225 5458 c-3 -7 -6 -49 -7 -93 l-3 -80 -65 -3 c-35 -2 -70 -8 -77
-14 -17 -14 -18 -164 -1 -174 6 -4 85 -8 175 -9 l163 -1 0 193 0 193 -90 0
c-64 0 -92 -4 -95 -12z"/>
<path d="M3515 4728 c-3 -7 -6 -51 -7 -98 l-3 -85 -95 -5 -95 -5 -3 -92 -3
-93 -94 0 -94 0 -3 93 -3 92 -93 3 -93 3 3 -93 3 -93 93 -3 92 -3 0 -67 c0
-40 -5 -73 -12 -80 -7 -7 -44 -12 -95 -12 l-83 0 0 -85 0 -86 43 53 c72 89
146 131 325 184 7 2 12 21 12 48 l0 45 98 3 97 3 3 92 3 92 72 3 72 3 0 95 0
95 -68 3 c-48 2 -69 -1 -72 -10z"/>
<path d="M3516 4242 c5 -16 0 -21 -27 -27 -27 -6 -35 -3 -49 15 -16 21 -22 22
-80 16 -264 -30 -433 -179 -485 -428 -23 -110 -34 -99 138 -136 83 -18 170
-38 192 -43 116 -26 182 -40 212 -44 19 -2 38 -7 43 -10 6 -4 10 12 10 39 0
25 4 46 9 46 4 0 6 -22 3 -49 -4 -44 -2 -49 19 -54 39 -11 41 -9 34 36 -7 46
11 103 41 127 9 8 36 15 60 16 52 2 80 20 63 40 -9 11 -7 15 6 20 9 4 20 2 24
-4 11 -18 152 18 148 38 -1 10 7 16 26 18 15 2 27 -2 27 -8 0 -7 12 -9 33 -5
17 3 77 12 132 19 83 10 100 15 99 29 -1 10 6 17 17 17 11 0 19 -4 19 -10 0
-5 -5 -10 -12 -10 -6 0 -9 -2 -7 -5 3 -2 17 -1 31 3 l26 7 -20 53 c-15 39 -24
52 -40 52 -16 0 -19 5 -15 21 9 34 -79 120 -166 162 -97 48 -194 67 -369 74
-144 6 -147 5 -142 -15z"/>
<path d="M2853 3489 c3 -151 9 -210 24 -264 19 -68 20 -70 49 -67 29 4 55 19
51 30 -3 9 14 11 31 4 7 -2 25 1 38 9 21 11 27 11 34 -1 7 -11 18 -12 62 -2
51 11 88 16 191 29 45 5 47 7 47 38 0 51 32 72 124 80 78 8 78 7 67 -14 -13
-23 -6 -45 10 -36 5 4 9 1 9 -4 0 -6 -7 -11 -15 -11 -8 0 -15 -7 -15 -15 0 -8
-4 -15 -10 -15 -5 0 -10 -12 -10 -26 0 -24 3 -26 31 -22 22 4 33 0 40 -14 8
-15 6 -18 -13 -18 -27 0 -56 -29 -51 -50 3 -11 0 -10 -10 2 -8 10 -16 15 -19
13 -3 -3 -11 1 -18 10 -19 23 -32 18 -28 -11 3 -23 -4 -29 -58 -54 l-62 -28
-18 21 c-11 14 -19 17 -22 9 -2 -7 -17 -12 -32 -12 -34 0 -50 -19 -26 -32 13
-7 14 -13 6 -23 -14 -17 -2 -39 25 -43 11 -1 58 -4 105 -6 47 -2 121 -10 165
-17 77 -13 78 -14 40 -20 -22 -4 19 -6 92 -6 128 1 132 2 136 23 2 14 -2 25
-11 29 -10 4 -11 9 -3 18 6 9 36 14 78 15 38 0 70 1 72 1 2 1 -2 8 -9 16 -11
13 -51 14 -106 4 -5 -1 -19 -1 -31 0 -21 1 -22 6 -25 93 l-3 92 -28 1 c-15 1
-34 11 -42 21 -16 21 -20 54 -6 54 15 0 22 32 10 46 -14 17 -49 15 301 17
l285 2 0 75 c0 61 -3 74 -15 72 -53 -12 -154 -13 -199 -2 -31 7 -56 9 -64 3
-6 -5 -59 -10 -117 -11 -119 -3 -140 -8 -140 -28 0 -36 -80 8 -90 49 -5 20
-13 22 -75 24 -66 1 -197 22 -275 43 -19 6 -93 21 -165 35 -71 15 -152 32
-180 40 -27 7 -70 16 -94 20 l-43 7 5 -193z"/>
<path d="M5033 3262 l-93 -3 0 -95 0 -94 -172 2 -173 3 -3 93 -3 92 -139 0
-139 0 -11 -42 c-6 -24 -22 -72 -35 -108 -25 -65 -25 -67 -25 -423 l0 -357
-84 0 c-57 0 -87 4 -95 13 -6 8 -12 81 -13 193 l-3 179 -90 5 -90 5 -3 39 c-3
38 -3 38 -40 33 -20 -4 -99 -9 -174 -13 l-138 -7 0 -124 0 -123 -94 0 c-76 0
-95 3 -100 16 -3 9 -6 69 -6 134 l0 119 -42 11 c-24 5 -77 24 -119 40 -75 30
-80 30 -225 28 l-149 -3 -3 -77 -3 -77 -92 -3 -92 -3 -3 -92 -3 -92 -97 -3
-97 -3 -5 -170 -5 -170 -265 -5 -265 -5 -3 -85 c-2 -47 -7 -89 -12 -94 -7 -7
-102 -11 -172 -6 -5 0 -8 37 -8 83 0 45 -4 88 -8 95 -7 9 -48 12 -173 10
l-164 -3 -3 -89 c-2 -56 1 -92 8 -96 6 -4 40 -5 76 -4 107 3 104 6 104 -102
l0 -93 -92 -3 -93 -3 0 -90 0 -90 90 0 90 0 3 93 3 92 263 0 c210 0 266 3 275
14 6 7 11 46 10 89 -1 41 1 79 4 84 7 11 166 8 178 -4 5 -5 10 -89 11 -188 l3
-180 70 -5 70 -5 2 -150 c4 -212 -5 -195 108 -195 l95 0 0 -95 c0 -92 1 -95
24 -101 13 -3 55 -4 93 -2 l68 5 3 96 3 97 174 0 175 0 0 -270 0 -270 -95 0
-95 0 0 165 0 165 -25 10 c-13 5 -49 9 -79 8 l-55 -2 -3 -75 -3 -76 -90 -5
-90 -5 -3 -179 c-1 -112 -7 -185 -13 -193 -9 -10 -52 -13 -175 -13 l-164 0 0
195 0 194 73 3 72 3 3 73 c2 39 -1 72 -5 73 -4 1 -37 2 -73 3 l-65 3 -5 189
-5 189 -92 3 -93 3 0 -83 c0 -46 -4 -89 -8 -95 -6 -9 -60 -13 -192 -15 l-185
-3 0 -170 0 -170 92 -3 93 -3 0 -94 0 -94 -93 -3 -92 -3 0 -95 0 -95 92 -3 92
-3 3 -92 3 -92 95 -5 95 -5 1 -66 c0 -36 4 -71 8 -77 11 -19 1049 -17 1065 1
7 9 12 102 13 273 l3 259 90 0 90 0 3 -85 c2 -46 8 -90 14 -97 7 -9 39 -13 99
-13 l88 0 3 -92 3 -93 70 0 70 0 3 93 3 93 97 -3 97 -3 5 -90 5 -90 93 -3 92
-3 0 -67 c0 -40 5 -73 12 -80 18 -18 701 -17 716 1 6 7 12 42 14 77 l3 65 70
5 70 5 3 92 3 93 89 0 c80 0 90 2 100 21 13 24 7 156 -8 171 -5 5 -47 8 -96 6
l-86 -3 0 368 0 367 193 -2 192 -3 0 -90 0 -90 -85 -3 c-46 -2 -89 -7 -95 -12
-11 -9 -11 -168 0 -179 4 -3 42 -6 87 -7 44 -2 84 -6 89 -11 4 -4 9 -37 11
-73 l3 -65 90 -5 90 -5 3 -192 2 -192 -92 -3 -93 -3 -5 -90 -5 -90 -85 -3
c-46 -2 -89 -7 -96 -12 -12 -11 -12 -119 0 -139 10 -16 507 -16 524 1 7 7 12
40 12 80 l0 68 95 0 95 0 0 -68 c0 -40 5 -73 12 -80 17 -17 164 -16 175 1 4 6
7 42 8 80 l0 67 -97 0 -97 0 -3 93 -3 92 -92 3 -93 3 0 -96 0 -96 -77 3 -78 3
-3 92 -3 92 78 3 78 3 5 190 5 190 265 0 265 0 0 -90 0 -90 -65 -3 c-35 -2
-70 -8 -78 -14 -11 -9 -13 -49 -10 -192 l3 -181 75 0 75 0 5 90 5 90 192 3
193 2 2 -172 3 -173 159 -3 c108 -2 163 1 172 9 18 15 19 122 1 137 -7 6 -42
12 -77 14 l-65 3 -3 93 -3 92 69 0 c39 0 73 5 80 12 7 7 12 42 12 88 0 46 -5
81 -12 88 -16 16 -120 16 -136 0 -8 -8 -12 -45 -12 -100 l0 -88 -95 0 -95 0 0
89 c0 60 -4 92 -13 99 -7 6 -51 12 -97 14 l-85 3 -3 167 -2 167 -33 6 c-17 3
-59 6 -92 8 l-60 2 -3 262 -2 263 22 5 c13 3 55 6 93 7 l70 3 3 70 c4 120 0
115 95 115 51 0 88 5 95 12 7 7 12 44 12 95 l0 83 58 1 c31 0 66 2 77 4 11 3
28 2 38 -1 16 -5 17 -21 15 -192 l-3 -187 -90 -5 -90 -5 -5 -75 -5 -75 -95 -5
-95 -5 -3 -70 c-5 -117 -7 -115 103 -115 l95 0 0 -95 c0 -52 3 -95 8 -96 4 0
43 -2 86 -4 44 -3 83 -8 87 -12 4 -5 9 -37 11 -73 l3 -65 72 -3 c68 -3 73 -2
78 20 3 13 4 334 3 713 l-3 690 -172 3 -172 2 -3 -72 -3 -73 -270 -5 -270 -5
-3 -83 c-4 -105 1 -113 79 -108 39 3 62 0 69 -9 6 -8 10 -47 8 -97 l-3 -83
-170 0 -170 0 -3 193 -2 192 99 0 98 0 -1 75 -1 75 -97 0 -97 0 -3 98 -3 97
-90 0 -90 0 0 -95 0 -95 93 -3 92 -3 0 -74 0 -74 -92 -3 -93 -3 -3 -179 c-1
-112 -7 -185 -13 -193 -15 -18 -123 -18 -138 0 -7 9 -12 127 -13 368 l-3 354
-185 3 c-120 2 -186 6 -191 13 -4 6 -5 79 -2 161 3 106 1 154 -8 164 -8 10
-36 14 -100 14 l-89 0 0 95 0 95 89 0 c62 0 92 4 100 13 11 15 14 175 3 179
-4 2 -49 2 -99 0z m-95 -459 l-3 -78 -170 -5 -170 -5 -3 -92 -3 -93 173 -2
173 -3 3 -89 c2 -65 -1 -92 -10 -98 -7 -4 -41 -8 -76 -8 l-63 0 3 -72 3 -73
70 -5 70 -5 3 -89 c3 -101 0 -106 -62 -100 -82 9 -86 4 -86 -89 0 -51 -5 -88
-12 -95 -8 -8 -45 -12 -100 -12 l-89 0 3 -92 3 -93 172 -3 172 -2 3 92 3 93
95 5 95 5 0 87 c1 48 4 90 8 94 14 14 166 12 177 -1 6 -8 10 -48 8 -97 l-3
-83 -95 -5 -95 -5 3 -63 c2 -34 1 -76 -3 -92 l-7 -30 -94 0 -94 0 0 -80 0 -80
-347 -2 -348 -3 0 -90 0 -90 259 -3 c171 -1 264 -6 273 -13 9 -8 13 -37 13
-90 0 -67 -3 -80 -19 -89 -11 -6 -88 -10 -183 -9 -90 0 -168 0 -175 0 -8 -1
-13 -26 -15 -73 l-3 -73 -66 -3 c-48 -2 -69 1 -78 12 -9 10 -11 60 -9 175 l3
161 -97 0 -97 0 -3 -92 -3 -92 -30 -8 c-16 -5 -58 -6 -93 -3 l-63 7 3 91 3 92
93 3 93 3 -3 92 -3 92 -90 5 -90 5 0 75 0 75 90 5 90 5 5 189 5 189 75 -1
c119 -2 110 -17 110 179 l0 170 78 -3 77 -3 5 -70 5 -70 90 0 90 0 3 172 2
172 -92 3 -93 3 -3 164 c-2 125 1 166 10 173 7 4 129 8 271 8 l258 0 -3 -77z
m-1820 -273 c2 -132 6 -186 15 -192 6 -4 94 -8 195 -8 l182 0 0 100 0 100 163
0 c113 0 167 -4 175 -12 7 -7 12 -42 12 -88 0 -46 -5 -81 -12 -88 -8 -8 -62
-12 -175 -12 l-163 0 0 -270 0 -270 75 0 75 0 0 184 c0 144 3 186 14 195 9 8
69 11 192 9 l179 -3 3 -96 3 -96 -78 -1 c-43 0 -86 -1 -95 -1 -16 -1 -18 -12
-18 -84 0 -51 -5 -88 -12 -95 -8 -8 -45 -12 -100 -12 l-88 0 -2 -172 -3 -173
-72 -3 -73 -3 0 -94 0 -94 73 -3 72 -3 3 -90 c2 -49 8 -92 13 -96 6 -4 46 -5
89 -4 43 1 83 -1 89 -4 5 -4 11 -38 13 -76 l3 -70 90 -5 90 -5 0 -90 0 -90
-190 -5 -190 -5 -3 -98 -3 -97 -74 0 -75 0 0 94 c0 108 -1 106 91 106 l59 0 0
174 0 175 -72 -2 -73 -2 -3 98 -3 97 -194 0 -194 0 -3 93 -3 92 -90 5 -90 5
-3 67 c-2 37 -8 71 -15 77 -7 5 -42 11 -77 13 l-65 3 -3 179 c-1 101 2 183 7
190 5 6 33 10 63 10 93 -3 88 -19 88 269 0 184 -3 256 -12 265 -7 7 -40 12
-80 12 l-68 0 -2 -172 -3 -173 -90 0 -90 0 -3 173 -2 172 95 0 95 0 0 95 0 95
173 -2 172 -3 3 -185z m-552 -554 c10 -4 14 -26 14 -80 0 -108 2 -106 -94
-106 -50 0 -87 5 -94 12 -18 18 -16 165 2 175 16 9 149 8 172 -1z m3488 -384
c3 -5 6 -124 7 -266 1 -209 -1 -260 -12 -267 -20 -13 -501 -10 -516 3 -18 15
-19 508 -1 526 14 14 513 18 522 4z m-3286 -249 l3 -93 -96 0 -95 0 0 88 c0
49 3 92 7 96 4 4 46 5 93 4 l85 -3 3 -92z m4027 2 l0 -90 -92 -3 -93 -3 0 96
0 96 93 -3 92 -3 0 -90z m-4565 -367 l0 -78 -195 0 -195 0 0 68 c0 37 5 73 11
79 6 6 77 10 195 9 l184 -1 0 -77z m1280 17 c0 -96 1 -95 -94 -95 -50 0 -87 5
-94 12 -7 7 -12 38 -12 70 0 70 3 72 120 74 l80 1 0 -62z m-1483 -297 c6 -7
10 -52 9 -101 l-1 -87 98 0 98 0 -3 -92 -3 -93 -94 0 -94 0 -1 90 -1 90 -97 3
-98 3 0 93 c0 51 3 96 7 99 12 13 170 8 180 -5z m2361 0 c8 -8 12 -45 12 -100
l0 -87 93 -3 92 -3 0 -90 0 -90 -90 0 -90 0 -3 92 -3 92 -77 3 -77 3 -3 83
c-2 53 1 89 9 98 14 18 120 19 137 2z m550 -91 l3 -98 -73 3 -73 3 -3 84 c-2
46 0 91 2 98 4 10 23 13 73 11 l68 -3 3 -98z m-2014 -113 c9 -23 7 -147 -3
-162 -5 -9 -28 -12 -77 -10 l-69 3 -3 79 c-2 44 -1 85 2 93 8 20 142 18 150
-3z m1314 -76 l-3 -93 -92 -3 -93 -3 0 89 c0 49 3 92 7 95 3 4 46 7 95 7 l89
0 -3 -92z"/>
<path d="M4413 1983 c-9 -3 -13 -33 -13 -99 l0 -94 -74 0 c-58 0 -75 -3 -80
-16 -9 -23 -7 -147 3 -162 5 -9 28 -12 77 -10 l69 3 3 93 3 92 94 0 95 0 0 94
0 94 -57 5 c-72 7 -104 7 -120 0z"/>
<path d="M3127 2174 c-13 -13 -8 -171 6 -181 9 -8 131 -11 170 -4 4 0 6 43 5
94 l-3 92 -85 3 c-47 1 -89 0 -93 -4z"/>
<path d="M3316 1774 c-12 -31 -7 -309 6 -322 8 -8 45 -12 100 -12 l88 0 0 175
0 175 -94 0 c-76 0 -95 -3 -100 -16z"/>
<path d="M5684 1427 c-3 -8 -4 -49 -2 -93 l3 -79 90 0 90 0 0 90 0 90 -88 3
c-67 2 -89 0 -93 -11z"/>
<path d="M6416 3055 c-3 -9 -6 -52 -6 -96 l0 -79 -164 0 c-119 0 -166 -3 -174
-12 -15 -19 -14 -124 1 -136 7 -6 42 -12 77 -14 l65 -3 3 -92 3 -93 -69 0
c-48 0 -73 -4 -82 -14 -7 -10 -10 -44 -8 -98 l3 -83 54 -3 c101 -6 101 -6 101
103 l0 94 93 3 92 3 3 70 c4 121 -2 115 107 115 l94 0 3 -92 3 -93 90 0 90 0
3 93 3 92 67 0 c40 0 73 5 80 12 16 16 16 120 0 136 -16 16 -120 16 -136 0 -7
-7 -12 -40 -12 -80 l0 -68 -95 0 -95 0 -2 173 -3 172 -91 3 c-77 2 -93 0 -98
-13z"/>
<path d="M3090 2901 c40 -27 127 -61 198 -77 106 -24 385 -30 514 -10 145 21
277 71 195 73 -18 1 -185 6 -372 12 -618 20 -562 19 -535 2z"/>
<path d="M1313 2873 c-9 -3 -13 -29 -13 -79 l0 -74 -89 0 c-59 0 -92 -4 -99
-12 -16 -21 -15 -353 2 -367 9 -8 71 -11 192 -9 l179 3 3 98 3 97 79 0 79 0 3
-97 3 -98 179 -3 c113 -1 183 1 191 8 16 13 19 143 5 170 -10 19 -22 20 -195
20 l-185 0 0 163 c0 113 -4 167 -12 175 -12 12 -297 17 -325 5z m175 -251 l3
-93 -93 3 -93 3 -3 93 -3 93 93 -3 93 -3 3 -93z"/>
<path d="M5342 2872 c-9 -6 -12 -29 -10 -78 l3 -69 90 0 90 0 0 75 0 75 -80 3
c-44 1 -86 -2 -93 -6z"/>
<path d="M5692 2871 c-9 -5 -12 -28 -10 -77 l3 -69 90 0 90 0 3 69 c2 49 -1
72 -10 77 -7 5 -44 9 -83 9 -38 0 -76 -4 -83 -9z"/>
<path d="M2234 2707 c-3 -8 -4 -49 -2 -93 l3 -79 73 -3 73 -3 -3 93 -3 93 -68
3 c-50 2 -69 -1 -73 -11z"/>
<path d="M222 2518 c-16 -16 -16 -160 0 -176 7 -7 37 -12 68 -12 31 0 61 5 68
12 16 16 16 160 0 176 -7 7 -37 12 -68 12 -31 0 -61 -5 -68 -12z"/>
<path d="M222 2168 c-7 -7 -12 -41 -12 -90 0 -92 9 -101 98 -97 l57 3 3 -97 3
-97 -75 0 c-88 0 -89 -1 -84 -115 l3 -70 75 0 75 0 3 93 3 92 188 0 c163 0
190 -2 195 -16 3 -9 6 -51 6 -95 l0 -80 93 3 92 3 5 90 5 90 65 3 c36 2 68 6
72 10 9 10 14 169 5 178 -4 4 -34 8 -67 9 -33 1 -64 5 -70 11 -5 5 -10 47 -12
94 l-3 85 -184 3 c-141 2 -186 -1 -193 -10 -4 -7 -8 -50 -8 -95 0 -46 -3 -83
-7 -84 -5 0 -46 -1 -93 -1 l-85 -1 -5 94 -5 94 -65 3 c-42 2 -70 -2 -78 -10z"/>
<path d="M1654 1587 c-3 -8 -4 -43 -2 -78 l3 -64 90 0 90 0 0 75 0 75 -88 3
c-67 2 -89 0 -93 -11z"/>
<path d="M216 1424 c-3 -8 -6 -291 -6 -629 0 -505 2 -615 14 -624 9 -8 185
-10 637 -9 l624 3 0 635 0 635 -631 3 c-570 2 -632 1 -638 -14z m1079 -639 l0
-460 -460 0 -460 0 -3 450 c-1 248 0 456 3 463 3 10 101 12 462 10 l458 -3 0
-460z"/>
<path d="M574 1047 c-20 -12 -21 -509 0 -526 9 -8 88 -11 267 -9 l254 3 0 269
0 269 -253 1 c-139 1 -260 -3 -268 -7z"/>
</g>
</svg>
