<?xml version="1.0" standalone="no"?>
<!DOCTYPE svg PUBLIC "-//W3C//DTD SVG 20010904//EN"
 "http://www.w3.org/TR/2001/REC-SVG-20010904/DTD/svg10.dtd">
<svg version="1.0" xmlns="http://www.w3.org/2000/svg"
 width="558.000000pt" height="558.000000pt" viewBox="0 0 558.000000 558.000000"
 preserveAspectRatio="xMidYMid meet">
<metadata>
Created by potrace 1.16, written by Peter Selinger 2001-2019
</metadata>
<g transform="translate(0.000000,558.000000) scale(0.100000,-0.100000)"
fill="#000000" stroke="none">
<path d="M120 4950 l0 -500 500 0 500 0 0 500 0 500 -500 0 -500 0 0 -500z
m860 0 l0 -360 -360 0 -360 0 0 360 0 360 360 0 360 0 0 -360z"/>
<path d="M400 4950 l0 -220 220 0 220 0 0 220 0 220 -220 0 -220 0 0 -220z"/>
<path d="M1270 5380 l0 -70 70 0 70 0 0 -70 0 -70 75 0 75 0 0 -75 0 -75 70 0
70 0 0 145 0 145 145 0 145 0 0 -70 0 -70 -75 0 -75 0 0 -145 0 -145 -70 0
-70 0 0 -75 0 -75 -70 0 -70 0 0 75 0 75 -75 0 -75 0 0 -75 0 -75 75 0 75 0 0
-215 0 -215 -75 0 -75 0 0 145 0 145 -70 0 -70 0 0 -145 0 -145 70 0 70 0 0
-145 0 -145 75 0 75 0 0 75 0 75 140 0 140 0 0 -75 0 -75 -70 0 -70 0 0 -70 0
-70 -70 0 -70 0 0 -145 0 -145 -75 0 -75 0 0 145 0 145 -70 0 -70 0 0 145 0
145 -75 0 -75 0 0 70 0 70 -70 0 -70 0 0 -70 0 -70 -70 0 -70 0 0 70 0 70
-145 0 -145 0 0 -145 0 -145 -75 0 -75 0 0 -70 0 -70 -140 0 -140 0 0 -215 0
-215 70 0 70 0 0 -75 0 -75 70 0 70 0 0 75 0 75 75 0 75 0 0 -75 0 -75 70 0
70 0 0 145 0 145 75 0 75 0 0 75 0 75 70 0 70 0 0 -75 0 -75 215 0 215 0 0
-70 0 -70 -215 0 -215 0 0 -75 0 -75 70 0 70 0 0 -70 0 -70 -215 0 -215 0 0
-70 0 -70 -70 0 -70 0 0 70 0 70 -75 0 -75 0 0 -70 0 -70 75 0 75 0 0 -75 0
-75 -215 0 -215 0 0 -360 0 -360 70 0 70 0 0 -70 0 -70 70 0 70 0 0 70 0 70
145 0 145 0 0 75 0 75 -145 0 -145 0 0 140 0 140 75 0 75 0 0 -70 0 -70 70 0
70 0 0 70 0 70 75 0 75 0 0 -70 0 -70 140 0 140 0 0 -70 0 -70 -70 0 -70 0 0
-75 0 -75 -70 0 -70 0 0 -70 0 -70 70 0 70 0 0 -75 0 -75 70 0 70 0 0 75 0 75
-70 0 -70 0 0 70 0 70 145 0 145 0 0 75 0 75 145 0 145 0 0 -75 0 -75 70 0 70
0 0 -145 0 -145 -70 0 -70 0 0 75 0 75 -145 0 -145 0 0 -145 0 -145 -145 0
-145 0 0 -70 0 -70 145 0 145 0 0 -220 0 -220 70 0 70 0 0 -140 0 -140 -70 0
-70 0 0 -145 0 -145 70 0 70 0 0 -75 0 -75 -70 0 -70 0 0 -140 0 -140 70 0 70
0 0 140 0 140 75 0 75 0 0 -70 0 -70 140 0 140 0 0 -70 0 -70 75 0 75 0 0 140
0 140 70 0 70 0 0 -70 0 -70 75 0 75 0 0 70 0 70 140 0 140 0 0 -70 0 -70 75
0 75 0 0 -70 0 -70 285 0 285 0 0 70 0 70 -70 0 -70 0 0 70 0 70 145 0 145 0
0 -140 0 -140 215 0 215 0 0 70 0 70 70 0 70 0 0 -70 0 -70 145 0 145 0 0 70
0 70 -70 0 -70 0 0 145 0 145 70 0 70 0 0 70 0 70 75 0 75 0 0 -70 0 -70 70 0
70 0 0 -145 0 -145 -70 0 -70 0 0 -70 0 -70 215 0 215 0 0 70 0 70 215 0 215
0 0 -70 0 -70 70 0 70 0 0 215 0 215 -70 0 -70 0 0 -75 0 -75 -70 0 -70 0 0
75 0 75 -75 0 -75 0 0 145 0 145 -70 0 -70 0 0 140 0 140 70 0 70 0 0 75 0 75
215 0 215 0 0 70 0 70 -70 0 -70 0 0 75 0 75 70 0 70 0 0 70 0 70 -70 0 -70 0
0 70 0 70 70 0 70 0 0 220 0 220 -70 0 -70 0 0 70 0 70 70 0 70 0 0 215 0 215
-70 0 -70 0 0 75 0 75 70 0 70 0 0 215 0 215 -70 0 -70 0 0 70 0 70 70 0 70 0
0 75 0 75 -70 0 -70 0 0 70 0 70 70 0 70 0 0 70 0 70 -70 0 -70 0 0 75 0 75
70 0 70 0 0 70 0 70 -70 0 -70 0 0 -70 0 -70 -360 0 -360 0 0 70 0 70 -70 0
-70 0 0 -70 0 -70 70 0 70 0 0 -145 0 -145 -70 0 -70 0 0 -145 0 -145 140 0
140 0 0 -145 0 -145 -70 0 -70 0 0 -70 0 -70 -70 0 -70 0 0 145 0 145 -75 0
-75 0 0 360 0 360 -215 0 -215 0 0 -75 0 -75 70 0 70 0 0 -70 0 -70 -70 0 -70
0 0 -145 0 -145 70 0 70 0 0 -145 0 -145 -70 0 -70 0 0 75 0 75 -70 0 -70 0 0
-75 0 -75 70 0 70 0 0 -70 0 -70 -215 0 -215 0 0 145 0 145 -75 0 -75 0 0
-145 0 -145 75 0 75 0 0 -70 0 -70 70 0 70 0 0 -75 0 -75 -215 0 -215 0 0 -70
0 -70 -70 0 -70 0 0 145 0 145 70 0 70 0 0 70 0 70 -70 0 -70 0 0 -70 0 -70
-75 0 -75 0 0 -290 0 -290 -70 0 -70 0 0 70 0 70 -75 0 -75 0 0 -70 0 -70 -70
0 -70 0 0 70 0 70 -70 0 -70 0 0 75 0 75 215 0 215 0 0 145 0 145 -75 0 -75 0
0 140 0 140 75 0 75 0 0 75 0 75 70 0 70 0 0 -75 0 -75 145 0 145 0 0 75 0 75
-70 0 -70 0 0 70 0 70 140 0 140 0 0 75 0 75 -215 0 -215 0 0 -75 0 -75 -145
0 -145 0 0 -70 0 -70 -70 0 -70 0 0 145 0 145 145 0 145 0 0 70 0 70 70 0 70
0 0 145 0 145 75 0 75 0 0 70 0 70 70 0 70 0 0 145 0 145 70 0 70 0 0 -70 0
-70 75 0 75 0 0 70 0 70 70 0 70 0 0 -70 0 -70 75 0 75 0 0 -75 0 -75 140 0
140 0 0 290 0 290 -70 0 -70 0 0 -215 0 -215 -70 0 -70 0 0 285 0 285 215 0
215 0 0 -70 0 -70 70 0 70 0 0 70 0 70 -70 0 -70 0 0 75 0 75 70 0 70 0 0 70
0 70 -70 0 -70 0 0 70 0 70 -215 0 -215 0 0 -215 0 -215 -75 0 -75 0 0 -145 0
-145 -145 0 -145 0 0 75 0 75 -70 0 -70 0 0 70 0 70 70 0 70 0 0 75 0 75 75 0
75 0 0 70 0 70 70 0 70 0 0 70 0 70 -215 0 -215 0 0 -70 0 -70 -145 0 -145 0
0 70 0 70 -215 0 -215 0 0 -140 0 -140 -70 0 -70 0 0 70 0 70 -75 0 -75 0 0
70 0 70 -215 0 -215 0 0 -70 0 -70 -145 0 -145 0 0 70 0 70 -70 0 -70 0 0 -70z
m1440 -140 l0 -70 145 0 145 0 0 -145 0 -145 -145 0 -145 0 0 70 0 70 -75 0
-75 0 0 -145 0 -145 75 0 75 0 0 -140 0 -140 70 0 70 0 0 140 0 140 75 0 75 0
0 -215 0 -215 -75 0 -75 0 0 -70 0 -70 -70 0 -70 0 0 -145 0 -145 -75 0 -75 0
0 145 0 145 -70 0 -70 0 0 70 0 70 -70 0 -70 0 0 -215 0 -215 70 0 70 0 0 -70
0 -70 -70 0 -70 0 0 70 0 70 -75 0 -75 0 0 -145 0 -145 75 0 75 0 0 -145 0
-145 70 0 70 0 0 -140 0 -140 -70 0 -70 0 0 -145 0 -145 -145 0 -145 0 0 145
0 145 145 0 145 0 0 140 0 140 -75 0 -75 0 0 -70 0 -70 -145 0 -145 0 0 -70 0
-70 -70 0 -70 0 0 70 0 70 70 0 70 0 0 70 0 70 145 0 145 0 0 145 0 145 -70 0
-70 0 0 -70 0 -70 -145 0 -145 0 0 -75 0 -75 -70 0 -70 0 0 -215 0 -215 70 0
70 0 0 -70 0 -70 -145 0 -145 0 0 70 0 70 -70 0 -70 0 0 -145 0 -145 430 0
430 0 0 -70 0 -70 -70 0 -70 0 0 -145 0 -145 70 0 70 0 0 75 0 75 75 0 75 0 0
-75 0 -75 70 0 70 0 0 75 0 75 290 0 290 0 0 -75 0 -75 215 0 215 0 0 -70 0
-70 145 0 145 0 0 145 0 145 -145 0 -145 0 0 215 0 215 70 0 70 0 0 70 0 70
75 0 75 0 0 75 0 75 70 0 70 0 0 -75 0 -75 70 0 70 0 0 -70 0 -70 75 0 75 0 0
145 0 145 -75 0 -75 0 0 70 0 70 75 0 75 0 0 70 0 70 70 0 70 0 0 -70 0 -70
75 0 75 0 0 -70 0 -70 140 0 140 0 0 140 0 140 75 0 75 0 0 75 0 75 145 0 145
0 0 -75 0 -75 -145 0 -145 0 0 -70 0 -70 70 0 70 0 0 -145 0 -145 145 0 145 0
0 -215 0 -215 -145 0 -145 0 0 -215 0 -215 75 0 75 0 0 145 0 145 70 0 70 0 0
-220 0 -220 -145 0 -145 0 0 -70 0 -70 75 0 75 0 0 -70 0 -70 -75 0 -75 0 0
-75 0 -75 -70 0 -70 0 0 75 0 75 -145 0 -145 0 0 70 0 70 -70 0 -70 0 0 70 0
70 -75 0 -75 0 0 75 0 75 75 0 75 0 0 70 0 70 -145 0 -145 0 0 145 0 145 215
0 215 0 0 -70 0 -70 145 0 145 0 0 140 0 140 70 0 70 0 0 75 0 75 -70 0 -70 0
0 70 0 70 -215 0 -215 0 0 -70 0 -70 -75 0 -75 0 0 -75 0 -75 -145 0 -145 0 0
-70 0 -70 -70 0 -70 0 0 -70 0 -70 70 0 70 0 0 -75 0 -75 -70 0 -70 0 0 -70 0
-70 70 0 70 0 0 -75 0 -75 -70 0 -70 0 0 75 0 75 -70 0 -70 0 0 -75 0 -75
-145 0 -145 0 0 75 0 75 -75 0 -75 0 0 -75 0 -75 -140 0 -140 0 0 -70 0 -70
-75 0 -75 0 0 -70 0 -70 215 0 215 0 0 -75 0 -75 75 0 75 0 0 145 0 145 145 0
145 0 0 -70 0 -70 70 0 70 0 0 70 0 70 70 0 70 0 0 -145 0 -145 -285 0 -285 0
0 -70 0 -70 70 0 70 0 0 -75 0 -75 75 0 75 0 0 75 0 75 70 0 70 0 0 -75 0 -75
-70 0 -70 0 0 -70 0 -70 -75 0 -75 0 0 70 0 70 -70 0 -70 0 0 -70 0 -70 -75 0
-75 0 0 -215 0 -215 -70 0 -70 0 0 -75 0 -75 -70 0 -70 0 0 -70 0 -70 -145 0
-145 0 0 70 0 70 -75 0 -75 0 0 75 0 75 145 0 145 0 0 70 0 70 -70 0 -70 0 0
75 0 75 -75 0 -75 0 0 -75 0 -75 -70 0 -70 0 0 75 0 75 -145 0 -145 0 0 -145
0 -145 75 0 75 0 0 -75 0 -75 -75 0 -75 0 0 75 0 75 -70 0 -70 0 0 -75 0 -75
-75 0 -75 0 0 145 0 145 75 0 75 0 0 75 0 75 -75 0 -75 0 0 70 0 70 75 0 75 0
0 -70 0 -70 70 0 70 0 0 70 0 70 145 0 145 0 0 70 0 70 70 0 70 0 0 75 0 75
75 0 75 0 0 70 0 70 -75 0 -75 0 0 145 0 145 -70 0 -70 0 0 145 0 145 -70 0
-70 0 0 -215 0 -215 70 0 70 0 0 -75 0 -75 -70 0 -70 0 0 -145 0 -145 -75 0
-75 0 0 145 0 145 -70 0 -70 0 0 -70 0 -70 -75 0 -75 0 0 -75 0 -75 -70 0 -70
0 0 -70 0 -70 -70 0 -70 0 0 70 0 70 -75 0 -75 0 0 145 0 145 75 0 75 0 0 145
0 145 140 0 140 0 0 145 0 145 75 0 75 0 0 70 0 70 -75 0 -75 0 0 145 0 145
-285 0 -285 0 0 70 0 70 -145 0 -145 0 0 75 0 75 70 0 70 0 0 70 0 70 -140 0
-140 0 0 -70 0 -70 -75 0 -75 0 0 -75 0 -75 -70 0 -70 0 0 75 0 75 70 0 70 0
0 145 0 145 215 0 215 0 0 70 0 70 75 0 75 0 0 70 0 70 70 0 70 0 0 75 0 75
145 0 145 0 0 70 0 70 145 0 145 0 0 145 0 145 -75 0 -75 0 0 70 0 70 75 0 75
0 0 75 0 75 -75 0 -75 0 0 145 0 145 -70 0 -70 0 0 140 0 140 70 0 70 0 0 75
0 75 220 0 220 0 0 70 0 70 -75 0 -75 0 0 75 0 75 75 0 75 0 0 -75 0 -75 70 0
70 0 0 75 0 75 70 0 70 0 0 70 0 70 75 0 75 0 0 -70z m570 0 l0 -70 -70 0 -70
0 0 70 0 70 70 0 70 0 0 -70z m870 0 l0 -70 -145 0 -145 0 0 70 0 70 145 0
145 0 0 -70z m-3030 -1155 l0 -75 -70 0 -70 0 0 75 0 75 70 0 70 0 0 -75z
m-280 -145 l0 -70 -75 0 -75 0 0 -70 0 -70 -70 0 -70 0 0 -75 0 -75 -145 0
-145 0 0 75 0 75 70 0 70 0 0 70 0 70 75 0 75 0 0 70 0 70 145 0 145 0 0 -70z
m4460 0 l0 -70 -145 0 -145 0 0 70 0 70 145 0 145 0 0 -70z m-4030 -140 l0
-70 -145 0 -145 0 0 70 0 70 145 0 145 0 0 -70z m3600 -75 l0 -145 -75 0 -75
0 0 75 0 75 -70 0 -70 0 0 70 0 70 145 0 145 0 0 -145z m-720 -70 l0 -75 -75
0 -75 0 0 75 0 75 75 0 75 0 0 -75z m1010 0 l0 -75 -75 0 -75 0 0 75 0 75 75
0 75 0 0 -75z m140 -575 l0 -70 -70 0 -70 0 0 70 0 70 70 0 70 0 0 -70z
m-4900 -435 l0 -75 -70 0 -70 0 0 75 0 75 70 0 70 0 0 -75z m2880 -140 l0
-215 -70 0 -70 0 0 215 0 215 70 0 70 0 0 -215z m1440 140 l0 -75 -70 0 -70 0
0 75 0 75 70 0 70 0 0 -75z m-4320 -430 l0 -75 -70 0 -70 0 0 75 0 75 70 0 70
0 0 -75z m1010 -575 l0 -70 -70 0 -70 0 0 70 0 70 70 0 70 0 0 -70z m3030
-145 l0 -75 -145 0 -145 0 0 75 0 75 145 0 145 0 0 -75z m-290 -430 l0 -215
-75 0 -75 0 0 -75 0 -75 75 0 75 0 0 -70 0 -70 -75 0 -75 0 0 -75 0 -75 -70 0
-70 0 0 -70 0 -70 -145 0 -145 0 0 145 0 145 -70 0 -70 0 0 145 0 145 70 0 70
0 0 -75 0 -75 75 0 75 0 0 75 0 75 140 0 140 0 0 215 0 215 75 0 75 0 0 -215z
m570 0 l0 -215 -215 0 -215 0 0 215 0 215 215 0 215 0 0 -215z m-3160 -435 l0
-70 -75 0 -75 0 0 70 0 70 75 0 75 0 0 -70z m3310 0 l0 -70 70 0 70 0 0 -75 0
-75 -70 0 -70 0 0 75 0 75 -145 0 -145 0 0 70 0 70 145 0 145 0 0 -70z"/>
<path d="M1840 4590 l0 -140 75 0 75 0 0 -75 0 -75 145 0 145 0 0 145 0 145
-75 0 -75 0 0 -70 0 -70 -70 0 -70 0 0 140 0 140 -75 0 -75 0 0 -140z"/>
<path d="M2420 4515 l0 -215 70 0 70 0 0 -70 0 -70 75 0 75 0 0 70 0 70 -75 0
-75 0 0 215 0 215 -70 0 -70 0 0 -215z"/>
<path d="M1990 3940 l0 -70 70 0 70 0 0 70 0 70 -70 0 -70 0 0 -70z"/>
<path d="M1270 3080 l0 -70 70 0 70 0 0 70 0 70 -70 0 -70 0 0 -70z"/>
<path d="M3570 2575 l0 -145 75 0 75 0 0 70 0 70 140 0 140 0 0 75 0 75 -215
0 -215 0 0 -145z"/>
<path d="M2130 2070 l0 -70 75 0 75 0 0 70 0 70 -75 0 -75 0 0 -70z"/>
<path d="M2420 2070 l0 -70 215 0 215 0 0 70 0 70 -215 0 -215 0 0 -70z"/>
<path d="M4580 2070 l0 -70 -70 0 -70 0 0 -75 0 -75 140 0 140 0 0 -70 0 -70
75 0 75 0 0 -70 0 -70 70 0 70 0 0 70 0 70 -70 0 -70 0 0 70 0 70 -75 0 -75 0
0 75 0 75 75 0 75 0 0 70 0 70 -145 0 -145 0 0 -70z"/>
<path d="M1990 1780 l0 -70 70 0 70 0 0 70 0 70 -70 0 -70 0 0 -70z"/>
<path d="M2130 1495 l0 -75 75 0 75 0 0 75 0 75 -75 0 -75 0 0 -75z"/>
<path d="M2710 1495 l0 -75 70 0 70 0 0 75 0 75 -70 0 -70 0 0 -75z"/>
<path d="M1560 1350 l0 -70 70 0 70 0 0 70 0 70 -70 0 -70 0 0 -70z"/>
<path d="M3000 1350 l0 -70 -145 0 -145 0 0 -75 0 -75 70 0 70 0 0 -70 0 -70
-70 0 -70 0 0 -70 0 -70 70 0 70 0 0 -75 0 -75 75 0 75 0 0 145 0 145 140 0
140 0 0 70 0 70 -140 0 -140 0 0 75 0 75 70 0 70 0 0 70 0 70 -70 0 -70 0 0
-70z"/>
<path d="M3860 630 l0 -70 70 0 70 0 0 70 0 70 -70 0 -70 0 0 -70z"/>
<path d="M4440 1060 l0 -70 70 0 70 0 0 70 0 70 -70 0 -70 0 0 -70z"/>
<path d="M4440 4950 l0 -500 500 0 500 0 0 500 0 500 -500 0 -500 0 0 -500z
m860 0 l0 -360 -360 0 -360 0 0 360 0 360 360 0 360 0 0 -360z"/>
<path d="M4720 4950 l0 -220 220 0 220 0 0 220 0 220 -220 0 -220 0 0 -220z"/>
<path d="M4150 4445 l0 -145 70 0 70 0 0 145 0 145 -70 0 -70 0 0 -145z"/>
<path d="M120 4155 l0 -145 70 0 70 0 0 75 0 75 70 0 70 0 0 70 0 70 -140 0
-140 0 0 -145z"/>
<path d="M3280 4155 l0 -145 -70 0 -70 0 0 -70 0 -70 145 0 145 0 0 -145 0
-145 145 0 145 0 0 145 0 145 -75 0 -75 0 0 70 0 70 75 0 75 0 0 75 0 75 -145
0 -145 0 0 70 0 70 -75 0 -75 0 0 -145z"/>
<path d="M120 3080 l0 -70 70 0 70 0 0 70 0 70 -70 0 -70 0 0 -70z"/>
<path d="M120 1565 l0 -285 70 0 70 0 0 145 0 145 215 0 215 0 0 140 0 140
-70 0 -70 0 0 -70 0 -70 -75 0 -75 0 0 70 0 70 -140 0 -140 0 0 -285z"/>
<path d="M840 1350 l0 -70 140 0 140 0 0 70 0 70 -140 0 -140 0 0 -70z"/>
<path d="M120 630 l0 -500 500 0 500 0 0 500 0 500 -500 0 -500 0 0 -500z
m860 0 l0 -360 -360 0 -360 0 0 360 0 360 360 0 360 0 0 -360z"/>
<path d="M400 630 l0 -220 220 0 220 0 0 220 0 220 -220 0 -220 0 0 -220z"/>
<path d="M5300 990 l0 -140 -70 0 -70 0 0 -75 0 -75 140 0 140 0 0 215 0 215
-70 0 -70 0 0 -140z"/>
</g>
</svg>
